<svg xmlns="http://www.w3.org/2000/svg" xmlns:xlink="http://www.w3.org/1999/xlink" width="50.007" height="50.007" viewBox="0 0 50.007 50.007"><defs><filter id="a" x="0" y="0" width="50.007" height="50.007" filterUnits="userSpaceOnUse"><feOffset dy="3" input="SourceAlpha"/><feGaussianBlur stdDeviation="4" result="b"/><feFlood flood-color="#e0ae00"/><feComposite operator="in" in2="b"/><feComposite in="SourceGraphic"/></filter></defs><g transform="matrix(1, 0, 0, 1, 0, 0)" filter="url(#a)"><path d="M24.924,26.007H1.083A1.084,1.084,0,0,1,0,24.924V1.083A1.084,1.084,0,0,1,1.083,0H24.924a1.084,1.084,0,0,1,1.083,1.083V24.924A1.084,1.084,0,0,1,24.924,26.007ZM7.043,20.061h0l1,.528L7.857,19.47l.813-.792-1.124-.164-.5-1.017-.5,1.017-1.122.164.813.792-.192,1.118,1-.528Zm3.793-1.638a1.083,1.083,0,1,0,0,2.166h8.669a1.083,1.083,0,1,0,0-2.166ZM7.043,13.559h0l1,.528-.191-1.118.813-.792-1.124-.164L7.044,11l-.5,1.017-1.122.164.813.792-.192,1.118,1-.528Zm3.793-1.638a1.083,1.083,0,1,0,0,2.166h8.669a1.083,1.083,0,1,0,0-2.166Zm0-6.5a1.083,1.083,0,1,0,0,2.166h8.669a1.083,1.083,0,1,0,0-2.166ZM7.043,6.9h0l1,.528L7.857,6.308l.813-.792L7.546,5.352l-.5-1.018-.5,1.018-1.122.164.813.792L6.039,7.426l1-.528Z" transform="translate(12 9)" fill="#fff"/></g></svg>